<?xml version="1.0" encoding="UTF-8" standalone="no"?>
<svg
   xml:space="preserve"
   viewBox="0 0 255 255"
   version="1.1"
   id="svg4"
   xmlns="http://www.w3.org/2000/svg"
   xmlns:svg="http://www.w3.org/2000/svg"><defs
     id="defs4" /><g
     fill="#ffffff"
     id="g4"
     transform="matrix(1.955927,0,0,1.955927,-81.58287,-97.025083)"><path
       fill="#1f0e7e"
       d="M 255,138.7 A 115,115 0 0 1 127.5,255 142,142 0 0 1 0,116.3 115,115 0 0 1 127.5,0 142,142 0 0 1 255,138.7 Z"
       id="path1" /><path
       fill="#000000"
       d="M 88.1,50.8 A 37.3,37.3 0 0 1 111,39.3 c 8.3,-0.9 15,1 20.1,5.6 2,1.9 3.6,4.1 4.8,6.6 1.8,4.1 3.1,8.7 3.9,13.8 0.8,5.1 1.1,10.1 1.1,15.1 l -0.4,14.8 c -0.2,4.9 -0.2,9.8 -0.1,14.8 0.1,5 0.7,9.4 1.7,13.2 3,-3.7 5.9,-8 8.8,-13 2.9,-5 5.5,-9.9 7.9,-14.7 l 7.5,-14.7 c 2.6,-5 5.7,-9.9 9.2,-15 3.5,-5 7.3,-9.6 11.3,-13.6 6.6,-6.5 14,-10.4 22.4,-11.5 8.4,-1.2 15.2,0.7 20.5,5.6 a 21.8,21.8 0 0 1 6.7,19.3 c -0.9,8 -4.6,15.3 -11.2,21.8 a 104,104 0 0 1 -13.8,11.3 c -5.1,3.5 -10.3,6.6 -15.4,9.3 -5.1,2.7 -10.1,5.3 -15.1,7.7 -5,2.5 -10,5.2 -15.2,8.1 a 99,99 0 0 0 -13.3,8.9 c 4,0.8 8.6,1.2 13.9,1.1 5.3,-0.1 10.5,-0.3 15.6,-0.7 l 15.5,-1 a 106,106 0 0 1 15.9,0.4 c 5.4,0.5 10.3,1.6 14.7,3.2 2.7,1 5.1,2.4 7.1,4.3 a 22,22 0 0 1 6.7,18.9 c -0.6,8 -4.3,15.4 -11.2,22.2 -5,5 -10.9,8.5 -17.5,10.4 a 29.6,29.6 0 0 1 -18.4,-0.2 56.7,56.7 0 0 1 -18.4,-11.6 157,157 0 0 1 -12.2,-13 C 159,160.8 155,156.6 152.4,154.2 a 54,54 0 0 0 -8.8,-6.7 c -0.5,4.2 -0.6,8.7 -0.2,13.8 0.4,5 1,9.8 1.7,14.4 a 298,298 0 0 1 2.1,14.1 c 0.6,4.8 0.9,9.9 0.7,15.3 -0.2,5.4 -1,10.6 -2.3,15.6 a 39,39 0 0 1 -10.3,17.2 38.8,38.8 0 0 1 -22.2,11.2 c -8.5,1.3 -15.5,-0.4 -20.8,-5.3 -3,-2.7 -5,-6.2 -6.1,-10.4 -1.1,-4.2 -1,-8.7 0.3,-13.6 a 86.9,86.9 0 0 1 8.2,-19.5 c 3.8,-6.9 7.6,-12.9 11.5,-18.1 3.8,-5.2 7.9,-11.1 12.1,-17.5 4.2,-6.5 7.4,-12.2 9.4,-17.2 -5.2,2.1 -11.1,5.4 -17.7,9.7 -6.6,4.3 -12.6,8.4 -17.9,12.2 -5.3,3.9 -11.5,7.7 -18.6,11.6 a 98.6,98.6 0 0 1 -20.1,8.6 31.7,31.7 0 0 1 -14.2,0.9 21.2,21.2 0 0 1 -17.5,-25 36.5,36.5 0 0 1 10.9,-21.5 c 5.1,-5 11,-8.5 17.6,-10.5 a 95.8,95.8 0 0 1 32.4,-2.8 c 5.1,0.4 10,0.9 14.9,1.5 4.8,0.6 9.9,0.9 15.1,1.1 5.3,0.2 10.1,-0.1 14.4,-0.7 a 52,52 0 0 0 -7.4,-8.2 c -2.7,-2.5 -7.2,-6 -13.6,-10.7 C 99.6,109 94.9,105.3 91.9,102.6 A 53.3,53.3 0 0 1 78.9,85.5 24.8,24.8 0 0 1 78,68 c 1.8,-6.4 5.2,-12 10.2,-17 z"
       id="path2" /><path
       d="m 244.1,86.1 a 27,27 0 0 0 -7.1,-1 35,35 0 0 0 -9.5,1.3 99.7,99.7 0 0 0 -16.1,6.4 c -5.5,2.8 -10.7,5.8 -15.5,9 l -14.2,9.6 c -4.6,3.2 -9.5,6.4 -14.5,9.5 -5,3.1 -9.7,5.6 -14,7.3 1.7,-4.2 4.1,-8.7 7.2,-13.6 3.1,-4.9 6.2,-9.7 9.4,-14.2 a 837,837 0 0 0 9.6,-13.9 c 3.2,-4.7 6.1,-9.8 8.8,-15.1 a 75.2,75.2 0 0 0 6.2,-15.4 23.5,23.5 0 0 0 -3,-20.9 21.9,21.9 0 0 0 -18.6,-8.9 36.2,36.2 0 0 0 -23.2,8.3 38,38 0 0 0 -14.2,20.7 c -1.4,5 -2.1,10.2 -2.3,15.6 -0.2,5.4 0,10.5 0.6,15.2 a 298,298 0 0 0 2.1,14.1 c 0.8,4.6 1.3,9.4 1.7,14.3 0.4,5 0.3,9.6 -0.2,13.7 a 51.2,51.2 0 0 1 -9.9,-7.7 c -3.3,-3.2 -6.4,-6.5 -9.3,-9.8 -2.9,-3.3 -5.8,-6.7 -8.9,-10 A 74.8,74.8 0 0 0 98.6,91.2 c -4,-2.9 -8.1,-5.2 -12.5,-6.9 -2.7,-1 -5.6,-1.6 -8.7,-1.6 a 37.3,37.3 0 0 0 -22.8,8 37.4,37.4 0 0 0 -14.6,21 c -1.7,6.2 -1.4,12 0.9,17.2 2.3,5.2 6.3,8.9 11.9,11 a 70.8,70.8 0 0 0 23.2,3.8 c 4.6,0.1 11.4,-0.2 20.5,-0.9 9,-0.6 15.6,-0.9 19.8,-0.9 4.9,0.1 9,0.4 12.2,1.1 -3.8,3 -8.2,5.9 -13.4,8.9 A 227,227 0 0 1 99.9,160 c -5,2.4 -10,5 -15.2,7.7 -5.1,2.7 -10.3,5.8 -15.4,9.3 a 92,92 0 0 0 -13.8,11.4 37.7,37.7 0 0 0 -10.3,17.2 26.8,26.8 0 0 0 -0.7,11.5 c 7.3,6.9 15.3,13 23.8,18.3 4.1,-0.2 8.2,-1.1 12.5,-2.9 4.8,-2 9.1,-5 13.1,-8.8 5,-4.9 9.6,-10.7 13.9,-17.4 4.3,-6.7 7.8,-12.9 10.5,-18.5 2.7,-5.6 5.8,-11.8 9.5,-18.5 3.7,-6.7 7.3,-12.3 10.9,-16.7 a 66.7,66.7 0 0 1 1.8,16.9 c 0,6.8 -0.2,13 -0.6,18.6 -0.4,5.7 -0.3,11.9 0.4,18.7 a 56,56 0 0 0 4.4,17.7 c 1.8,4 4.6,7 8.2,9.1 3.6,2.1 7.8,3.2 12.4,3.3 8.2,0.1 15.9,-2.7 23.3,-8.6 a 38.2,38.2 0 0 0 14.1,-20.3 24.8,24.8 0 0 0 -1,-17.3 c -1.8,-4.1 -4.4,-8 -7.6,-11.7 a 72.3,72.3 0 0 0 -10.3,-9.7 l -10.9,-8.1 c -3.6,-2.6 -7.2,-5.4 -10.7,-8.5 a 59,59 0 0 1 -8.5,-9.2 c 3.5,-0.6 7.8,-0.8 12.7,-0.7 4.1,0.1 10.5,0.5 19.1,1.4 8.6,0.9 15.3,1.4 19.9,1.4 9,0.1 17.4,-0.9 25,-3 A 40.4,40.4 0 0 0 248.2,132 c 2.3,-2.3 4.3,-4.7 5.9,-7.3 A 133.4,133.4 0 0 0 244,86.2 Z"
       id="path3" /><path
       d="m 44.6,217.1 c 0.6,3.2 1.8,6.2 3.8,9.1 4.1,6 10.3,9.1 18.5,9.2 h 1.6 A 137,137 0 0 1 44.7,217.1 Z"
       id="path4" /></g></svg>
