<?xml version="1.0" encoding="UTF-8" standalone="no"?>
<!-- Generator: Adobe Illustrator 9.0, SVG Export Plug-In  -->

<svg
   width="130.286"
   height="114.00024"
   viewBox="0 0 97.714491 85.500193"
   xml:space="preserve"
   version="1.1"
   id="svg14"
   sodipodi:docname="bbdc.svg"
   inkscape:version="1.4.2 (f4327f4, 2025-05-13)"
   xmlns:inkscape="http://www.inkscape.org/namespaces/inkscape"
   xmlns:sodipodi="http://sodipodi.sourceforge.net/DTD/sodipodi-0.dtd"
   xmlns="http://www.w3.org/2000/svg"
   xmlns:svg="http://www.w3.org/2000/svg"><defs
   id="defs14" /><sodipodi:namedview
   id="namedview14"
   pagecolor="#ffffff"
   bordercolor="#000000"
   borderopacity="0.25"
   inkscape:showpageshadow="2"
   inkscape:pageopacity="0.0"
   inkscape:pagecheckerboard="0"
   inkscape:deskcolor="#d1d1d1"
   inkscape:document-units="pt"
   inkscape:zoom="5.6568542"
   inkscape:cx="55.242717"
   inkscape:cy="66.379649"
   inkscape:window-width="1920"
   inkscape:window-height="1017"
   inkscape:window-x="-8"
   inkscape:window-y="-8"
   inkscape:window-maximized="1"
   inkscape:current-layer="bg" />
	<g
   id="bg"
   style="clip-rule:nonzero;fill-rule:nonzero;stroke:#000000;stroke-miterlimit:4"
   transform="scale(0.76339453)">
		<path
   style="fill:#669999;stroke:none;fill-opacity:1"
   d="M 128,112 H 0 V 0 h 128 z"
   id="path1" />
	</g>
	<g
   id="title"
   style="clip-rule:nonzero;fill:#f9f2d2;fill-rule:nonzero;stroke:#000000;stroke-miterlimit:4"
   transform="scale(0.76339453)">
		<g
   style="stroke:none"
   id="g14">
			<path
   d="m 63.6,37.7 c -1.4,0 -2.8,-0.3 -4,-0.9 -1.2,-0.6 -2.2,-1.5 -2.9,-2.8 h -0.3 l -0.6,3.2 H 49 V 6.5 h 8.4 v 10.4 h 0.3 c 0.6,-0.8 1.5,-1.5 2.6,-1.9 1.1,-0.4 2.2,-0.7 3.4,-0.7 3,0 5.3,1 6.9,2.9 1.6,1.9 2.4,4.9 2.4,8.8 0,3.9 -0.8,6.8 -2.5,8.8 -1.7,2 -4,2.9 -6.9,2.9 z M 61,31.5 c 1.3,0 2.3,-0.4 2.8,-1.2 0.5,-0.8 0.8,-1.8 0.8,-3.1 V 25 c 0,-1.3 -0.3,-2.4 -0.8,-3.2 -0.5,-0.8 -1.5,-1.2 -2.8,-1.2 -1.3,0 -2.2,0.5 -2.8,1.4 -0.6,0.9 -0.9,2.1 -0.9,3.4 v 1.4 c 0,1.3 0.3,2.4 0.9,3.3 0.6,0.9 1.5,1.4 2.8,1.4 z"
   id="path2" />
			<path
   d="m 81.9,37.7 c -1.5,0 -2.9,-0.2 -4.1,-0.6 -1.2,-0.4 -2.1,-1 -2.8,-2 -0.7,-0.9 -1,-2.1 -1,-3.7 0,-2.2 0.6,-3.9 1.8,-5 1.2,-1.1 3,-1.9 5.3,-2.3 2.3,-0.4 5.1,-0.6 8.3,-0.6 v -1.1 c 0,-0.9 -0.3,-1.6 -1,-2 -0.7,-0.4 -1.4,-0.7 -2.3,-0.7 -0.7,0 -1.5,0.1 -2.2,0.4 -0.7,0.3 -0.9,0.8 -0.9,1.6 v 0.2 h -8.3 c 0,-0.1 0,-0.2 0,-0.3 0,-0.1 0,-0.2 0,-0.3 0,-2.1 1,-3.7 3,-5 2,-1.3 4.9,-1.9 8.7,-1.9 2.1,0 4,0.2 5.7,0.7 1.7,0.5 3.2,1.2 4.2,2.3 1,1.1 1.6,2.5 1.6,4.3 v 8.7 c 0,0.5 0.1,0.8 0.3,1.2 0.2,0.3 0.6,0.5 1,0.5 h 1.5 V 37 c -0.3,0.2 -0.9,0.4 -1.7,0.6 -0.8,0.2 -1.7,0.3 -2.7,0.3 -1.7,0 -3.1,-0.3 -4.1,-0.8 -1,-0.5 -1.7,-1.2 -2,-2 h -0.3 c -0.9,0.8 -2,1.5 -3.3,2 -1.3,0.5 -2.9,0.8 -4.8,0.8 z m 3.4,-5.3 c 1.1,0 2,-0.3 2.9,-0.9 0.8,-0.6 1.3,-1.3 1.3,-2.2 v -1.9 c -2.5,0 -4.3,0.3 -5.4,0.8 -1.1,0.5 -1.6,1.2 -1.6,2 0,0.9 0.3,1.4 0.9,1.7 0.6,0.3 1.3,0.4 2,0.4 z"
   id="path3" />
			<path
   d="m 110.1,37.7 c -3,0 -5.3,-1 -6.9,-2.9 -1.6,-1.9 -2.5,-4.9 -2.5,-8.8 0,-3.9 0.8,-6.8 2.5,-8.7 1.7,-1.9 4,-2.9 6.9,-2.9 1.2,0 2.3,0.2 3.4,0.6 1.1,0.4 1.9,1.1 2.6,2 h 0.3 V 6.5 h 8.4 V 37.1 H 118 l -0.6,-3.2 H 117 c -0.8,1.3 -1.8,2.2 -3,2.8 -1.2,0.6 -2.5,0.9 -4,0.9 z m 2.6,-6.2 c 1.3,0 2.3,-0.5 2.9,-1.4 0.6,-0.9 0.9,-2 0.9,-3.3 v -1.4 c 0,-1.3 -0.3,-2.5 -0.9,-3.4 -0.6,-0.9 -1.5,-1.4 -2.9,-1.4 -1.3,0 -2.2,0.4 -2.8,1.2 -0.6,0.8 -0.8,1.8 -0.8,3.2 v 2.2 c 0,1.3 0.3,2.3 0.8,3.1 0.6,0.8 1.5,1.2 2.8,1.2 z"
   id="path4" />
			<path
   d="m 51.9,60.7 c -1.4,0 -2.8,-0.3 -4,-0.9 C 46.7,59.2 45.7,58.3 45,57 h -0.3 l -0.6,3.2 H 37.3 V 29.5 h 8.4 V 39.9 H 46 c 0.6,-0.8 1.5,-1.5 2.6,-1.9 1.1,-0.4 2.2,-0.7 3.4,-0.7 3,0 5.3,1 6.9,2.9 1.6,1.9 2.5,4.8 2.5,8.7 0,3.9 -0.8,6.8 -2.5,8.8 -1.7,1.9 -4,2.9 -6.9,2.9 z m -2.6,-6.2 c 1.3,0 2.3,-0.4 2.8,-1.2 0.5,-0.8 0.8,-1.8 0.8,-3.1 V 48 c 0,-1.3 -0.3,-2.4 -0.8,-3.2 -0.5,-0.8 -1.5,-1.2 -2.8,-1.2 -1.3,0 -2.2,0.5 -2.8,1.4 -0.6,0.9 -0.9,2.1 -0.9,3.4 v 1.4 c 0,1.3 0.3,2.4 0.9,3.3 0.6,0.9 1.5,1.4 2.8,1.4 z"
   id="path5" />
			<path
   d="M 71.3,60.7 C 68.7,60.7 66.7,60 65.4,58.5 64.1,57 63.5,55 63.5,52.3 V 37.9 h 8.4 v 13.4 c 0,0.9 0.2,1.7 0.7,2.3 0.5,0.6 1.2,0.9 2.1,0.9 1.1,0 1.9,-0.3 2.6,-1 0.6,-0.7 1,-1.5 1,-2.5 V 37.9 h 8.4 v 22.3 h -6.9 l -0.4,-3.4 h -0.3 c -0.8,1.2 -1.9,2.2 -3.4,2.9 -1.4,0.7 -2.9,1 -4.4,1 z"
   id="path6" />
			<path
   d="M 90.1,60.2 V 37.9 H 97 l 0.5,3.4 h 0.3 c 0.9,-1.3 2,-2.3 3.3,-2.9 1.3,-0.6 2.8,-1 4.3,-1 2.6,0 4.6,0.7 5.9,2.2 1.3,1.5 1.9,3.5 1.9,6.2 v 14.4 h -8.4 V 46.7 c 0,-0.9 -0.2,-1.7 -0.7,-2.3 -0.5,-0.6 -1.2,-0.9 -2.1,-0.9 -1,0 -1.9,0.3 -2.5,1 -0.6,0.7 -1,1.5 -1,2.5 v 13.1 h -8.4 z"
   id="path7" />
			<path
   d="m 61.6,83.7 c -1.4,0 -2.7,-0.1 -4,-0.4 C 56.3,83 55,82.6 53.9,82 c -1.1,-0.6 -2,-1.3 -2.7,-2.2 -0.7,-0.9 -1,-2 -1,-3.3 0,-0.1 0,-0.2 0,-0.3 0,-0.1 0,-0.2 0,-0.3 H 58 c 0,0.1 0,0.2 0,0.3 0,0.1 0,0.2 0,0.2 0,0.8 0.4,1.4 1.1,1.7 0.7,0.4 1.5,0.5 2.5,0.5 0.4,0 0.9,0 1.4,-0.1 0.5,-0.1 1,-0.2 1.5,-0.4 0.4,-0.2 0.6,-0.6 0.6,-1.1 0,-0.5 -0.2,-0.8 -0.7,-1.1 -0.5,-0.2 -1.1,-0.4 -1.9,-0.6 -0.8,-0.2 -1.7,-0.3 -2.6,-0.5 -1,-0.2 -2.1,-0.4 -3.1,-0.7 -1,-0.3 -2,-0.6 -2.9,-1.1 -0.9,-0.5 -1.6,-1.1 -2.2,-2 -0.6,-0.9 -0.8,-1.9 -0.8,-3.2 0,-2 0.5,-3.5 1.6,-4.6 1.1,-1.1 2.4,-1.9 4.1,-2.3 1.7,-0.4 3.5,-0.7 5.5,-0.7 1.3,0 2.5,0.1 3.8,0.4 1.3,0.2 2.4,0.6 3.4,1.1 1,0.5 1.9,1.2 2.5,2 0.6,0.8 0.9,1.9 0.9,3.1 0,0.1 0,0.2 0,0.3 0,0.1 0,0.2 0,0.3 H 65 v -0.3 c 0,-0.6 -0.3,-1.1 -1,-1.4 -0.7,-0.3 -1.3,-0.4 -2,-0.4 -0.2,0 -0.6,0 -1.1,0.1 -0.5,0 -0.9,0.2 -1.4,0.4 -0.5,0.2 -0.6,0.5 -0.6,1 0,0.5 0.3,0.9 1,1.1 0.7,0.2 1.6,0.4 2.6,0.6 1.1,0.2 2.2,0.4 3.5,0.6 1.2,0.2 2.4,0.5 3.5,0.9 1.1,0.4 2,1.1 2.7,2 0.7,0.9 1.1,2.1 1.1,3.7 0,2 -0.5,3.6 -1.6,4.8 -1.1,1.2 -2.5,2 -4.2,2.4 -1.7,0.4 -3.6,0.7 -5.7,0.7 z"
   id="path8" />
			<path
   d="m 87.3,83.7 c -4,0 -7.2,-0.9 -9.5,-2.8 C 75.5,79 74.3,76 74.3,72 c 0,-2.6 0.5,-4.8 1.6,-6.5 1,-1.7 2.5,-3 4.4,-3.9 1.9,-0.9 4.1,-1.3 6.6,-1.3 4,0 7.1,0.9 9.3,2.8 2.2,1.9 3.3,4.8 3.3,8.8 v 1.4 H 82.7 c 0,1.5 0.3,2.7 1,3.6 0.7,0.8 1.8,1.3 3.4,1.3 1.5,0 2.5,-0.3 3.2,-1 0.6,-0.6 0.9,-1.4 0.9,-2.3 h 8.2 c 0,2.6 -1,4.7 -3,6.3 -2,1.6 -5,2.3 -9.1,2.3 z M 82.7,69.5 h 8.2 c 0,-1.2 -0.3,-2.1 -1,-2.7 -0.7,-0.6 -1.6,-1 -2.8,-1 -1.4,0 -2.5,0.3 -3.2,1 -0.7,0.7 -1.1,1.6 -1.3,2.7 z"
   id="path9" />
			<path
   d="M 101.7,83.2 V 60.9 h 6.9 l 0.5,3.4 h 0.3 c 0.9,-1.3 2,-2.3 3.3,-2.9 1.3,-0.6 2.8,-1 4.3,-1 2.6,0 4.6,0.7 5.9,2.2 1.3,1.5 1.9,3.5 1.9,6.2 v 14.4 h -8.4 V 69.7 c 0,-0.9 -0.2,-1.7 -0.7,-2.3 -0.5,-0.6 -1.2,-0.9 -2.1,-0.9 -1,0 -1.9,0.3 -2.5,1 -0.6,0.7 -1,1.5 -1,2.5 v 13.1 h -8.4 z"
   id="path10" />
			<path
   d="m 10.9,106.1 v -8.4 h 9 v 8.4 z"
   id="path11" />
			<path
   d="m 34.7,106.7 c -2.5,0 -4.7,-0.4 -6.6,-1.3 -1.9,-0.9 -3.3,-2.2 -4.4,-3.9 -1.1,-1.7 -1.6,-3.9 -1.6,-6.5 0,-2.6 0.5,-4.8 1.6,-6.5 1.1,-1.7 2.5,-3 4.4,-3.9 1.9,-0.9 4.1,-1.3 6.6,-1.3 2.3,0 4.4,0.3 6.2,1 1.9,0.6 3.3,1.7 4.4,3.1 1.1,1.4 1.6,3.2 1.6,5.5 h -8.2 c 0,-1.3 -0.4,-2.3 -1.1,-2.9 -0.7,-0.6 -1.6,-1 -2.9,-1 -1.5,0 -2.5,0.4 -3.2,1.3 -0.6,0.8 -1,2 -1,3.5 v 2.4 c 0,1.5 0.3,2.6 1,3.5 0.7,0.8 1.8,1.3 3.3,1.3 1.4,0 2.4,-0.3 3.2,-0.9 0.8,-0.6 1.1,-1.6 1.1,-3 H 47 c 0,2.3 -0.5,4.1 -1.6,5.5 -1.1,1.4 -2.6,2.5 -4.4,3.1 -1.9,0.6 -3.9,1 -6.2,1 z"
   id="path12" />
			<path
   d="m 61.1,106.7 c -2.5,0 -4.7,-0.4 -6.6,-1.3 -1.9,-0.9 -3.3,-2.2 -4.4,-3.9 -1.1,-1.7 -1.6,-3.9 -1.6,-6.5 0,-2.6 0.5,-4.8 1.6,-6.5 1,-1.7 2.5,-3 4.4,-3.9 1.9,-0.9 4.1,-1.3 6.6,-1.3 2.5,0 4.7,0.4 6.6,1.3 1.9,0.9 3.4,2.1 4.4,3.9 1,1.7 1.6,3.9 1.6,6.5 0,2.6 -0.5,4.8 -1.6,6.5 -1,1.7 -2.5,3 -4.4,3.9 -1.9,0.9 -4.1,1.3 -6.6,1.3 z m 0,-5.7 c 1.5,0 2.6,-0.4 3.2,-1.3 0.6,-0.8 1,-2 1,-3.5 v -2.4 c 0,-1.5 -0.3,-2.7 -1,-3.5 -0.6,-0.8 -1.7,-1.3 -3.2,-1.3 -1.5,0 -2.5,0.4 -3.2,1.3 -0.6,0.8 -1,2 -1,3.5 v 2.4 c 0,1.5 0.3,2.6 1,3.5 0.6,0.8 1.7,1.3 3.2,1.3 z"
   id="path13" />
			<path
   d="M 76,106.2 V 83.9 h 6.9 l 0.5,3.3 h 0.3 c 0.8,-1.3 1.9,-2.2 3.2,-2.9 1.4,-0.6 2.8,-1 4.2,-1 1.7,0 3.1,0.3 4.3,1 1.2,0.7 2,1.6 2.5,2.9 h 0.3 c 0.8,-1.3 1.9,-2.2 3.2,-2.9 1.3,-0.7 2.7,-1 4.2,-1 2.6,0 4.5,0.7 5.7,2.2 1.2,1.5 1.9,3.5 1.9,6.2 v 14.4 h -8.4 V 92.7 c 0,-0.9 -0.2,-1.7 -0.7,-2.3 -0.5,-0.6 -1.1,-0.9 -2,-0.9 -1,0 -1.8,0.3 -2.4,1 -0.6,0.7 -0.9,1.5 -0.9,2.5 v 13.1 H 90.4 V 92.7 c 0,-0.9 -0.2,-1.7 -0.7,-2.3 -0.5,-0.6 -1.1,-0.9 -2,-0.9 -1,0 -1.8,0.3 -2.4,1 -0.6,0.7 -0.9,1.5 -0.9,2.5 v 13.1 H 76 Z"
   id="path14" />
		</g>
	</g>
</svg>
