<svg version="1.2" xmlns="http://www.w3.org/2000/svg" viewBox="180 262.1000061035156 252 267.79998779296875" width="252" height="268">
	<style>
		.s0 { fill: #ffffff } 
	</style>
	<g id="Layer 1">
		<g id="&lt;Group&gt;">
			<path id="&lt;Compound Path&gt;" class="s0" d="m362.42 373.22q-0.51-1.35-1.06-2.63 2.25-1.51 4.17-2.96c89.56-47 68.88-62.02 8.25-24.83q-2.15-1.78-5.22-3.23c21.39-20.98 27.63-29.97-3.15-1.33-3.54-1.34-7.67-2.42-12.21-3.24q1.5-2.37 2.76-4.63c2.12-2.76 2.66-3.76 1.51-2.79 3.47-6.78 5.24-12.58 5.6-17.04 7.5-12.15 7.04-12.29 0.06-2.24-0.1-3.02-0.97-5.23-2.5-6.47 3.57-11.11 0.81-12.77-6.17-4.89-1.52-3.51-6.67-0.86-13.94 8.44-3.66-3.26-10.95 2.32-18.06 18.21 9.8-32.64 9.05-29.15-0.54 0.35 0.33-4.51-1.1-2.16-3.41 6.5-0.53 0.34-1.18 1.31-1.93 2.95q-0.59 0.04-1.18 0.09c4.65-51.7-2.48-52.01-6.75-11.88 1.15-1.75 2.31 2.78 2.69 12.24q-1.93 0.2-3.82 0.44 0.51-6.89 1.13-12.68c-0.78 1.2-1.57 5.32-2.09 12.8q-0.88 0.12-1.74 0.24c0.19-19.36-1.19-28.76-2.81-29.33-0.85-12.56-1.38-10.87-1.09 0.92q-0.35 0.69-0.69 1.87c-0.46-4-0.99-7.42-1.52-10.13-0.39-4.19-0.48-4.64-0.25-1.19-2.11-9.71-4.32-8.26-4.02 12.28-1.85-4.74-3.8-8.6-5.75-11.6-9.29-22.33-18.53-20.99-18.71-2.51-17.26-39.23-25.82-39.19-10.37 3.67q-1.17-1.67-1.41-1.31c-16.14-24.43-17.29-10.25 0.56 26.83-2.56 3.99-4.74 9.96-6.48 17.14-22.2-22.16-22.15-19.37-0.86 3.84q-0.12 0.55-0.23 1.11c-7.85-6.32-9.4-5.8-0.66 3.47q-0.39 2.2-0.73 4.49c-2.03 0.05-2.18 1.56-0.57 4.06q-0.33 2.59-0.6 5.25c-33.09-16-48.1-12.24-34.67-0.28-49.99-11.46-35.45 0.2 25.67 15.39q2.08 0.97 4.32 1.96-0.13 1.03-0.25 2.08c-68.14-10.71-62.91-9.47-0.04 0.44q-0.35 3.46-0.42 7.05-4.56 0.12-8.13 0.48 3.89 0.04 8.12 0.1-0.04 2.14 0.03 4.3-10.97-0.19-19.61-0.47c0.89 1.56 7.14 3.01 19.73 3.34q0.07 1.22 0.17 2.43c-66.44 8.15-72.2 32.7-1.55 15.8-1.7 5.12 0.8 8.76 7.04 8.6q0.68 1.64 1.44 3.16c-67.33 43.3-70.86 50.03 1.93 3.43q0.47 0.74 0.95 1.42c-31.47 22.76-32.29 32.07-13.97 21.4-31.8 31.68-30.57 38.67-1.71 12.51-4.09 1.61-0.83-5.63 9.11-17.23 3.92-2.68 8.36-5.99 13.28-9.94q1.15 1.3 2.36 2.56-2.05 2.42-3.88 4.57c-8.06 8.09-15.03 14.74-20.87 20.04 2.28-0.9 6.85-4.56 13.81-11.73-10.21 11.99-10.43 12.13 0.93-0.96q4.56-4.74 10.42-11.49 1.01 1.04 2.05 2.06-0.84 1.22-1.63 2.4c-14.38 18.81-20.1 30.56-19.19 33.77-17 24.48-16.23 24.85 0.88 0.88q1.09 0.2 3.3-1.25c0.14 1.98 0.91 3.15 2.22 3.43-21.61 43.36-13.11 49.7 8.26 14.59-1.58 14.95 5.4 12.05 15.19-10.74 2.53 2.21 6.27 1.37 10.32-3-7.51 44.86-7.91 50.74 0.65-0.72 3.18-3.69 6.52-9.54 9.62-17.75-5.53 48.15 1.72 54.55 7.49 30.01 1.66 40.6 4.53 40.93 2.06-10.6q0.61-3.73 1.14-7.99c2.76 15.83 3.99 16.39 1.15-6.12q1.69 0.33 3.55 0.25c6.93 37.22 13.98 46.61 12.56 24.23 1.85 5.85 3 6.7 3.02 2.43 5.37 4.97 10.5 4.57 13.22-1.13 7.74 12.55 11.44 11.09 9.97-0.19 0.71-2.02 0.81-5.35 0.15-9.93q0.04-0.24 0.07-0.51 3.89 5.35 6.9 8.41c2.6 4.65 2.68 4.7 0.44 0.44 13.56 13.43 12.51-8.01-11.38-45.21q0.91-0.93 1.8-1.88 2.25 0.52 4.26 0.22c11.55 9.53 15.97 8.41 14.73 2.12 5.94 1.64 6.58-3.56-2.32-14.73q0.26-0.76 0.49-1.56c36.36 14.47 52.46 8.31 24.44-5.82 6.1 0.75 0.86-4.2-18.68-13.34 3.21-7.21 4.88-13.98 4.29-19.47 0.85-0.52 0.76-1.08-0.25-1.6q-0.43-2.2-1.44-4.06c40.56-3.48 54.92-7.36 20.34-3.39 38.14-5.44 28.01-9.38-1.42-6.76-6.61 2.29-13.99 4.49-22.03 6.45q-1.5-1.22-3.51-2.08-0.1-0.51-0.21-1.02c9.52-1.6 18.25-2.69 25.75-3.35 50.53-17.57 56.04-40.91-28.67-6.73zm-101.87 71.37q1-1.15 2.06-2.36 0.07 0.07 0.14 0.14-1.11 1.12-2.2 2.22zm43.17 34.14q-0.21-4.01-0.46-8.37 0.4 0.2 0.81 0.37 0.34 2.11 0.65 4c-0.35 3.79-0.71 5.02-1 4zm18.01-76.01l20.46 27.88-16.2 11.69-20.21-27.88-20.2 27.88-16.2-11.69 20.46-27.88-33.12-10.71 6.2-18.99 32.8 10.71v-34.69h20v34.69l32.91-10.71 6.34 18.99zm50.93-13.56q-0.48 0.07-0.96 0.13-0.01-0.01-0.02-0.02 0.49-0.05 0.98-0.11z"/>
			<path id="&lt;Path&gt;" class="s0" d="m235.11 390.62c-53.98-0.55-57.62 2.45-11.46 3.93-0.85-1.51 3.25-3.12 11.46-3.93z"/>
		</g>
	</g>
</svg>