<?xml version="1.0" encoding="utf-8"?>
<!-- Generator: Adobe Illustrator 13.0.0, SVG Export Plug-In . SVG Version: 6.00 Build 14948)  -->
<!DOCTYPE svg PUBLIC "-//W3C//DTD SVG 1.0//EN" "http://www.w3.org/TR/2001/REC-SVG-20010904/DTD/svg10.dtd">
<svg version="1.0" id="Layer_1" xmlns="http://www.w3.org/2000/svg" xmlns:xlink="http://www.w3.org/1999/xlink" x="0px" y="0px"
	 width="584px" height="273px" viewBox="14 8.2 584 273" enable-background="new 14 8.2 584 273" xml:space="preserve">
<g>
	<g>
		<defs>
			<path id="SVGID_1_" d="M443.7,93.8c-7.2,0-13,5.8-13,13v140.5c0,7.2,5.8,13,13,13h140.5c7.2,0,13-5.8,13-13V106.8
				c0-7.2-5.8-13-13-13H443.7z"/>
		</defs>
		<clipPath id="SVGID_2_">
			<use xlink:href="#SVGID_1_"  overflow="visible"/>
		</clipPath>
		
			<linearGradient id="SVGID_3_" gradientUnits="userSpaceOnUse" x1="-138.938" y1="278.8564" x2="-137.938" y2="278.8564" gradientTransform="matrix(0 166.4584 166.4584 0 -45904 23304.4062)">
			<stop  offset="0" style="stop-color:#ED1D32"/>
			<stop  offset="0.4894" style="stop-color:#993333"/>
			<stop  offset="1" style="stop-color:#993333"/>
		</linearGradient>
		<rect x="430.7" y="93.8" clip-path="url(#SVGID_2_)" fill="url(#SVGID_3_)" width="166.5" height="166.5"/>
	</g>
</g>
<g>
	<g>
		<defs>
			<rect id="SVGID_4_" width="612" height="289.2"/>
		</defs>
		<clipPath id="SVGID_5_">
			<use xlink:href="#SVGID_4_"  overflow="visible"/>
		</clipPath>
		<rect x="560" y="260.3" clip-path="url(#SVGID_5_)" fill="#993333" width="15.2" height="20"/>
	</g>
	<g>
		<defs>
			<rect id="SVGID_6_" width="612" height="289.2"/>
		</defs>
		<clipPath id="SVGID_7_">
			<use xlink:href="#SVGID_6_"  overflow="visible"/>
		</clipPath>
		<rect x="450" y="260.3" clip-path="url(#SVGID_7_)" fill="#993333" width="15.2" height="20"/>
	</g>
</g>
<g>
	<g>
		<defs>
			<path id="SVGID_8_" d="M27.8,93.8c-7.2,0-13,5.8-13,13v140.5c0,7.2,5.8,13,13,13h140.5c7.2,0,13-5.8,13-13V106.8
				c0-7.2-5.8-13-13-13H27.8z"/>
		</defs>
		<clipPath id="SVGID_9_">
			<use xlink:href="#SVGID_8_"  overflow="visible"/>
		</clipPath>
		
			<linearGradient id="SVGID_10_" gradientUnits="userSpaceOnUse" x1="-138.938" y1="278.6816" x2="-137.938" y2="278.6816" gradientTransform="matrix(0 166.4584 -166.4584 0 46487 23304.4062)">
			<stop  offset="0" style="stop-color:#4EC9F5"/>
			<stop  offset="0.4894" style="stop-color:#794A9D"/>
			<stop  offset="1" style="stop-color:#794A9D"/>
		</linearGradient>
		<rect x="14.8" y="93.8" clip-path="url(#SVGID_9_)" fill="url(#SVGID_10_)" width="166.5" height="166.5"/>
	</g>
</g>
<g>
	<g>
		<defs>
			<rect id="SVGID_11_" x="36.8" y="260.3" width="15.2" height="20"/>
		</defs>
		<clipPath id="SVGID_12_">
			<use xlink:href="#SVGID_11_"  overflow="visible"/>
		</clipPath>
		
			<linearGradient id="SVGID_13_" gradientUnits="userSpaceOnUse" x1="-127.5166" y1="278.0449" x2="-126.5166" y2="278.0449" gradientTransform="matrix(0 20.0257 -20.0257 0 5612.457 2823.8765)">
			<stop  offset="0" style="stop-color:#7A4B9E"/>
			<stop  offset="1" style="stop-color:#794A9D"/>
		</linearGradient>
		<rect x="36.8" y="260.3" clip-path="url(#SVGID_12_)" fill="url(#SVGID_13_)" width="15.2" height="20"/>
	</g>
</g>
<g>
	<g>
		<defs>
			<rect id="SVGID_14_" x="146.8" y="260.3" width="15.2" height="20"/>
		</defs>
		<clipPath id="SVGID_15_">
			<use xlink:href="#SVGID_14_"  overflow="visible"/>
		</clipPath>
		
			<linearGradient id="SVGID_16_" gradientUnits="userSpaceOnUse" x1="-127.5166" y1="278.0449" x2="-126.5166" y2="278.0449" gradientTransform="matrix(0 20.0257 -20.0257 0 5722.457 2823.8765)">
			<stop  offset="0" style="stop-color:#7A4B9E"/>
			<stop  offset="1" style="stop-color:#794A9D"/>
		</linearGradient>
		<rect x="146.8" y="260.3" clip-path="url(#SVGID_15_)" fill="url(#SVGID_16_)" width="15.2" height="20"/>
	</g>
</g>
<g>
	<g>
		<defs>
			<rect id="SVGID_17_" width="612" height="289.2"/>
		</defs>
		<clipPath id="SVGID_18_">
			<use xlink:href="#SVGID_17_"  overflow="visible"/>
		</clipPath>
		<path clip-path="url(#SVGID_18_)" fill="#FFFFFF" d="M253.2,83.4l-12.6,19.5L272,83.4h102.4v-73H243.9c-1,0,0,73,0,73H253.2z"/>
	</g>
	<g>
		<defs>
			<rect id="SVGID_19_" width="612" height="289.2"/>
		</defs>
		<clipPath id="SVGID_20_">
			<use xlink:href="#SVGID_19_"  overflow="visible"/>
		</clipPath>
		<path clip-path="url(#SVGID_20_)" fill="none" stroke="#000000" stroke-width="3" stroke-miterlimit="10" d="M253.2,83.4
			l-12.6,19.5L272,83.4h102.4v-73H243.9c-1,0,0,73,0,73H253.2z"/>
	</g>
</g>
<g>
	<g>
		<defs>
			<path id="SVGID_21_" d="M77.8,93.8c-7.2,0-13,5.8-13,13v140.5c0,7.2,5.8,13,13,13h140.5c7.2,0,13-5.8,13-13V106.8
				c0-7.2-5.8-13-13-13H77.8z"/>
		</defs>
		<clipPath id="SVGID_22_">
			<use xlink:href="#SVGID_21_"  overflow="visible"/>
		</clipPath>
		
			<linearGradient id="SVGID_23_" gradientUnits="userSpaceOnUse" x1="-138.938" y1="278.6826" x2="-137.938" y2="278.6826" gradientTransform="matrix(0 166.4584 -166.4584 0 46537 23304.4062)">
			<stop  offset="0" style="stop-color:#4EC9F5"/>
			<stop  offset="0.4894" style="stop-color:#794A9D"/>
			<stop  offset="1" style="stop-color:#794A9D"/>
		</linearGradient>
		<rect x="64.8" y="93.8" clip-path="url(#SVGID_22_)" fill="url(#SVGID_23_)" width="166.5" height="166.5"/>
	</g>
</g>
<g>
	<g>
		<defs>
			<rect id="SVGID_24_" x="86.8" y="260.3" width="15.2" height="20"/>
		</defs>
		<clipPath id="SVGID_25_">
			<use xlink:href="#SVGID_24_"  overflow="visible"/>
		</clipPath>
		
			<linearGradient id="SVGID_26_" gradientUnits="userSpaceOnUse" x1="-127.5166" y1="278.0449" x2="-126.5166" y2="278.0449" gradientTransform="matrix(0 20.0257 -20.0257 0 5662.457 2823.8765)">
			<stop  offset="0" style="stop-color:#7A4B9E"/>
			<stop  offset="1" style="stop-color:#794A9D"/>
		</linearGradient>
		<rect x="86.8" y="260.3" clip-path="url(#SVGID_25_)" fill="url(#SVGID_26_)" width="15.2" height="20"/>
	</g>
</g>
<g>
	<g>
		<defs>
			<rect id="SVGID_27_" x="196.8" y="260.3" width="15.2" height="20"/>
		</defs>
		<clipPath id="SVGID_28_">
			<use xlink:href="#SVGID_27_"  overflow="visible"/>
		</clipPath>
		
			<linearGradient id="SVGID_29_" gradientUnits="userSpaceOnUse" x1="-127.5166" y1="278.0449" x2="-126.5166" y2="278.0449" gradientTransform="matrix(0 20.0257 -20.0257 0 5772.457 2823.8765)">
			<stop  offset="0" style="stop-color:#7A4B9E"/>
			<stop  offset="1" style="stop-color:#794A9D"/>
		</linearGradient>
		<rect x="196.8" y="260.3" clip-path="url(#SVGID_28_)" fill="url(#SVGID_29_)" width="15.2" height="20"/>
	</g>
</g>
<g>
	<path d="M348.1,46c-1.4,1.7-3.4,2.5-6.2,2.5c-2.8,0-4.8-0.8-6.2-2.5c-1.4-1.7-2-3.7-2-6s0.7-4.3,2-6c1.4-1.7,3.4-2.5,6.2-2.5
		c2.8,0,4.8,0.8,6.2,2.5c1.4,1.7,2,3.7,2,6C350.2,42.3,349.5,44.3,348.1,46z M344.8,43.7c0.7-0.9,1-2.1,1-3.7s-0.3-2.8-1-3.7
		c-0.7-0.9-1.6-1.3-2.8-1.3s-2.2,0.4-2.8,1.3c-0.7,0.9-1,2.1-1,3.7s0.3,2.8,1,3.7c0.7,0.9,1.6,1.3,2.8,1.3S344.1,44.6,344.8,43.7z"
		/>
	<path d="M364.7,32c0.8,0.3,1.5,0.9,2,1.6c0.4,0.6,0.7,1.2,0.8,1.9c0.1,0.6,0.1,1.7,0.1,3.1V48h-4.3v-9.8c0-0.9-0.1-1.6-0.4-2.1
		c-0.4-0.7-1.1-1.1-2.2-1.1c-1.1,0-1.9,0.4-2.5,1.1c-0.6,0.7-0.9,1.8-0.9,3.2V48h-4.2V26.3h4.2V34c0.6-0.9,1.3-1.6,2.1-2
		c0.8-0.4,1.6-0.6,2.5-0.6C363,31.5,363.9,31.7,364.7,32z"/>
</g>
<g>
	<path d="M309.6,50.2c0.8,0.4,1.4,1,1.8,1.8v-7.7h4.3V66h-4.1v-2.2c-0.6,1-1.3,1.6-2,2.1c-0.8,0.4-1.7,0.6-2.9,0.6
		c-1.9,0-3.5-0.8-4.7-2.3c-1.3-1.5-1.9-3.5-1.9-5.8c0-2.7,0.6-4.9,1.9-6.5s2.9-2.4,5.1-2.4C308,49.6,308.9,49.8,309.6,50.2z
		 M310.7,61.6c0.6-0.9,0.9-2,0.9-3.4c0-2-0.5-3.4-1.5-4.2c-0.6-0.5-1.3-0.8-2.1-0.8c-1.2,0-2.1,0.5-2.7,1.4
		c-0.6,0.9-0.9,2.1-0.9,3.5c0,1.5,0.3,2.7,0.9,3.6c0.6,0.9,1.5,1.3,2.7,1.3C309.1,63,310.1,62.5,310.7,61.6z"/>
	<path d="M330,50.3c1.1,0.5,2,1.3,2.8,2.4c0.7,1,1.1,2.1,1.3,3.3c0.1,0.7,0.2,1.8,0.1,3.2h-11.7c0.1,1.6,0.6,2.7,1.7,3.4
		c0.6,0.4,1.4,0.6,2.3,0.6c1,0,1.7-0.2,2.3-0.7c0.3-0.3,0.6-0.6,0.9-1.1h4.3c-0.1,1-0.6,1.9-1.6,2.9c-1.4,1.6-3.5,2.3-6,2.3
		c-2.1,0-4-0.7-5.7-2c-1.7-1.3-2.5-3.5-2.5-6.4c0-2.8,0.7-4.9,2.2-6.4s3.4-2.2,5.7-2.2C327.6,49.5,328.9,49.8,330,50.3z M323.7,53.9
		c-0.6,0.6-1,1.4-1.1,2.5h7.2c-0.1-1.1-0.4-2-1.1-2.5c-0.7-0.6-1.5-0.9-2.5-0.9S324.3,53.3,323.7,53.9z"/>
	<path d="M342.7,56.2c0.8-0.1,1.3-0.2,1.7-0.4c0.6-0.3,0.9-0.7,0.9-1.2c0-0.7-0.2-1.1-0.7-1.4c-0.5-0.3-1.1-0.4-2-0.4
		c-1,0-1.7,0.2-2.1,0.7c-0.3,0.4-0.5,0.9-0.6,1.5h-4.1c0.1-1.4,0.5-2.6,1.2-3.5c1.1-1.4,3-2.1,5.7-2.1c1.8,0,3.3,0.3,4.7,1
		c1.4,0.7,2.1,2,2.1,3.9v7.4c0,0.5,0,1.1,0,1.9c0,0.6,0.1,0.9,0.3,1.1c0.1,0.2,0.3,0.4,0.6,0.5V66h-4.6c-0.1-0.3-0.2-0.6-0.3-0.9
		c0-0.3-0.1-0.6-0.1-1c-0.6,0.6-1.3,1.2-2,1.6c-0.9,0.5-1.9,0.8-3.1,0.8c-1.5,0-2.7-0.4-3.6-1.2c-1-0.8-1.4-2-1.4-3.5
		c0-2,0.8-3.4,2.3-4.3c0.8-0.5,2.1-0.8,3.7-1L342.7,56.2z M345.3,58.2c-0.3,0.2-0.5,0.3-0.8,0.4s-0.6,0.2-1.1,0.3l-1,0.2
		c-0.9,0.2-1.5,0.3-1.9,0.6c-0.7,0.4-1,1-1,1.8c0,0.7,0.2,1.2,0.6,1.6c0.4,0.3,0.9,0.5,1.5,0.5c0.9,0,1.8-0.3,2.5-0.8
		c0.8-0.5,1.2-1.5,1.2-2.9V58.2L345.3,58.2z"/>
	<path d="M362,49.6c0.1,0,0.2,0,0.4,0v4.3c-0.3,0-0.5,0-0.7-0.1c-0.2,0-0.4,0-0.5,0c-1.7,0-2.8,0.6-3.4,1.6
		c-0.3,0.6-0.5,1.6-0.5,2.9V66h-4.2V49.9h4v2.8c0.6-1.1,1.2-1.8,1.7-2.2c0.8-0.7,1.8-1,3.1-1C361.9,49.6,362,49.6,362,49.6z"/>
	<path d="M363.2,61.6h4.5V66h-4.5V61.6z"/>
</g>
<g>
	<g>
		<defs>
			<path id="SVGID_30_" d="M383.7,93.8c-7.2,0-13,5.8-13,13v140.5c0,7.2,5.8,13,13,13h140.5c7.2,0,13-5.8,13-13V106.8
				c0-7.2-5.8-13-13-13H383.7z"/>
		</defs>
		<clipPath id="SVGID_31_">
			<use xlink:href="#SVGID_30_"  overflow="visible"/>
		</clipPath>
		
			<linearGradient id="SVGID_32_" gradientUnits="userSpaceOnUse" x1="-138.938" y1="278.8564" x2="-137.938" y2="278.8564" gradientTransform="matrix(0 166.4584 166.4584 0 -45964 23304.4062)">
			<stop  offset="0" style="stop-color:#ED1D32"/>
			<stop  offset="0.4894" style="stop-color:#993333"/>
			<stop  offset="1" style="stop-color:#993333"/>
		</linearGradient>
		<rect x="370.7" y="93.8" clip-path="url(#SVGID_31_)" fill="url(#SVGID_32_)" width="166.5" height="166.5"/>
	</g>
</g>
<g>
	<g>
		<defs>
			<rect id="SVGID_33_" width="612" height="289.2"/>
		</defs>
		<clipPath id="SVGID_34_">
			<use xlink:href="#SVGID_33_"  overflow="visible"/>
		</clipPath>
		<rect x="500" y="260.3" clip-path="url(#SVGID_34_)" fill="#993333" width="15.2" height="20"/>
	</g>
	<g>
		<defs>
			<rect id="SVGID_35_" width="612" height="289.2"/>
		</defs>
		<clipPath id="SVGID_36_">
			<use xlink:href="#SVGID_35_"  overflow="visible"/>
		</clipPath>
		<rect x="390" y="260.3" clip-path="url(#SVGID_36_)" fill="#993333" width="15.2" height="20"/>
	</g>
	<g>
		<defs>
			<rect id="SVGID_37_" width="612" height="289.2"/>
		</defs>
		<clipPath id="SVGID_38_">
			<use xlink:href="#SVGID_37_"  overflow="visible"/>
		</clipPath>
		<path clip-path="url(#SVGID_38_)" d="M141.2,153.6c-2.7-2.3-3.8-6.1-3-9.6c0.8-3.6,2.9-7.8,8.9-7.3c7.2,0.6,8.1,6.4,8,9.6
			c0,1.6-0.5,3.2-1.3,4.6c-1.2,2-3.5,4.7-7.3,4.7C144.2,155.6,142.5,154.8,141.2,153.6"/>
	</g>
	<g>
		<defs>
			<rect id="SVGID_39_" width="612" height="289.2"/>
		</defs>
		<clipPath id="SVGID_40_">
			<use xlink:href="#SVGID_39_"  overflow="visible"/>
		</clipPath>
		<path clip-path="url(#SVGID_40_)" d="M211.7,153.7c-2.7-2.3-3.8-6.1-3-9.6c0.8-3.6,2.9-7.8,8.9-7.3c7.2,0.6,8.1,6.4,8,9.6
			c0,1.6-0.5,3.2-1.3,4.6c-1.2,2-3.5,4.7-7.3,4.7C214.7,155.7,213,154.8,211.7,153.7"/>
	</g>
	<g>
		<defs>
			<rect id="SVGID_41_" width="612" height="289.2"/>
		</defs>
		<clipPath id="SVGID_42_">
			<use xlink:href="#SVGID_41_"  overflow="visible"/>
		</clipPath>
		<path clip-path="url(#SVGID_42_)" d="M188.7,171.8c0,0-48.9,1.6-46.5,30.9c2.4,29.3,48.3,26.1,48.3,26.1s35.2-1.8,33-27.7
			C221.3,175.2,188.7,171.8,188.7,171.8"/>
	</g>
	<g>
		<defs>
			<rect id="SVGID_43_" width="612" height="289.2"/>
		</defs>
		<clipPath id="SVGID_44_">
			<use xlink:href="#SVGID_43_"  overflow="visible"/>
		</clipPath>
		<path clip-path="url(#SVGID_44_)" d="M460.8,153.6c2.7-2.3,3.8-6.1,3-9.6c-0.8-3.6-2.9-7.8-8.9-7.3c-7.2,0.6-8.1,6.4-8,9.6
			c0,1.6,0.5,3.2,1.3,4.6c1.2,2,3.5,4.7,7.3,4.7C457.8,155.6,459.5,154.8,460.8,153.6"/>
	</g>
	<g>
		<defs>
			<rect id="SVGID_45_" width="612" height="289.2"/>
		</defs>
		<clipPath id="SVGID_46_">
			<use xlink:href="#SVGID_45_"  overflow="visible"/>
		</clipPath>
		<path clip-path="url(#SVGID_46_)" d="M390.3,153.7c2.7-2.3,3.8-6.1,3-9.6c-0.8-3.6-2.9-7.8-8.9-7.3c-7.2,0.6-8.1,6.4-8,9.6
			c0,1.6,0.5,3.2,1.3,4.6c1.2,2,3.5,4.7,7.3,4.7C387.3,155.7,389,154.8,390.3,153.7"/>
	</g>
	<g>
		<defs>
			<rect id="SVGID_47_" width="612" height="289.2"/>
		</defs>
		<clipPath id="SVGID_48_">
			<use xlink:href="#SVGID_47_"  overflow="visible"/>
		</clipPath>
		<rect x="376.4" y="190.8" clip-path="url(#SVGID_48_)" width="87.6" height="3.6"/>
	</g>
</g>
</svg>
