<?xml version="1.0" encoding="UTF-8" standalone="no"?>
<svg
   xml:space="preserve"
   viewBox="0 0 255 255"
   version="1.1"
   id="svg4"
   xmlns="http://www.w3.org/2000/svg"
   xmlns:svg="http://www.w3.org/2000/svg"><defs
     id="defs4" /><g
     fill="#fff"
     id="g4"><path
       fill="#1f0e7e"
       d="M255 138.7A115 115 0 0 1 127.5 255 142 142 0 0 1 0 116.3 115 115 0 0 1 127.5 0 142 142 0 0 1 255 138.7"
       id="path1" /><path
       fill="#000"
       d="M88.1 50.8A37.3 37.3 0 0 1 111 39.3c8.3-.9 15 1 20.1 5.6q3 2.85 4.8 6.6 2.7 6.15 3.9 13.8c.8 5.1 1.1 10.1 1.1 15.1l-.4 14.8c-.2 4.9-.2 9.8-.1 14.8s.7 9.4 1.7 13.2c3-3.7 5.9-8 8.8-13s5.5-9.9 7.9-14.7l7.5-14.7c2.6-5 5.7-9.9 9.2-15 3.5-5 7.3-9.6 11.3-13.6 6.6-6.5 14-10.4 22.4-11.5 8.4-1.2 15.2.7 20.5 5.6a21.8 21.8 0 0 1 6.7 19.3c-.9 8-4.6 15.3-11.2 21.8a104 104 0 0 1-13.8 11.3c-5.1 3.5-10.3 6.6-15.4 9.3s-10.1 5.3-15.1 7.7c-5 2.5-10 5.2-15.2 8.1a99 99 0 0 0-13.3 8.9c4 .8 8.6 1.2 13.9 1.1s10.5-.3 15.6-.7l15.5-1a106 106 0 0 1 15.9.4c5.4.5 10.3 1.6 14.7 3.2 2.7 1 5.1 2.4 7.1 4.3a22 22 0 0 1 6.7 18.9c-.6 8-4.3 15.4-11.2 22.2-5 5-10.9 8.5-17.5 10.4a29.6 29.6 0 0 1-18.4-.2 56.7 56.7 0 0 1-18.4-11.6 157 157 0 0 1-12.2-13c-5.1-5.9-9.1-10.1-11.7-12.5a54 54 0 0 0-8.8-6.7c-.5 4.2-.6 8.7-.2 13.8.4 5 1 9.8 1.7 14.4a298 298 0 0 1 2.1 14.1c.6 4.8.9 9.9.7 15.3s-1 10.6-2.3 15.6a39 39 0 0 1-10.3 17.2 38.8 38.8 0 0 1-22.2 11.2c-8.5 1.3-15.5-.4-20.8-5.3-3-2.7-5-6.2-6.1-10.4s-1-8.7.3-13.6a87 87 0 0 1 8.2-19.5c3.8-6.9 7.6-12.9 11.5-18.1 3.8-5.2 7.9-11.1 12.1-17.5 4.2-6.5 7.4-12.2 9.4-17.2-5.2 2.1-11.1 5.4-17.7 9.7s-12.6 8.4-17.9 12.2c-5.3 3.9-11.5 7.7-18.6 11.6a98.6 98.6 0 0 1-20.1 8.6 31.7 31.7 0 0 1-14.2.9 21.2 21.2 0 0 1-17.5-25A36.5 36.5 0 0 1 32.6 144c5.1-5 11-8.5 17.6-10.5a95.8 95.8 0 0 1 32.4-2.8c5.1.4 10 .9 14.9 1.5 4.8.6 9.9.9 15.1 1.1 5.3.2 10.1-.1 14.4-.7a52 52 0 0 0-7.4-8.2c-2.7-2.5-7.2-6-13.6-10.7q-9.6-7.05-14.1-11.1a53.3 53.3 0 0 1-13-17.1A24.8 24.8 0 0 1 78 68c1.8-6.4 5.2-12 10.2-17z"
       id="path2" /><path
       d="M244.1 86.1a27 27 0 0 0-7.1-1 35 35 0 0 0-9.5 1.3 99.7 99.7 0 0 0-16.1 6.4c-5.5 2.8-10.7 5.8-15.5 9l-14.2 9.6c-4.6 3.2-9.5 6.4-14.5 9.5s-9.7 5.6-14 7.3c1.7-4.2 4.1-8.7 7.2-13.6s6.2-9.7 9.4-14.2a837 837 0 0 0 9.6-13.9c3.2-4.7 6.1-9.8 8.8-15.1a75.2 75.2 0 0 0 6.2-15.4 23.5 23.5 0 0 0-3-20.9 21.9 21.9 0 0 0-18.6-8.9 36.2 36.2 0 0 0-23.2 8.3 38 38 0 0 0-14.2 20.7c-1.4 5-2.1 10.2-2.3 15.6s0 10.5.6 15.2a298 298 0 0 0 2.1 14.1c.8 4.6 1.3 9.4 1.7 14.3.4 5 .3 9.6-.2 13.7a51.2 51.2 0 0 1-9.9-7.7c-3.3-3.2-6.4-6.5-9.3-9.8s-5.8-6.7-8.9-10a75 75 0 0 0-10.6-9.4c-4-2.9-8.1-5.2-12.5-6.9-2.7-1-5.6-1.6-8.7-1.6a37.3 37.3 0 0 0-22.8 8 37.4 37.4 0 0 0-14.6 21c-1.7 6.2-1.4 12 .9 17.2s6.3 8.9 11.9 11a70.8 70.8 0 0 0 23.2 3.8c4.6.1 11.4-.2 20.5-.9q13.5-.9 19.8-.9c4.9.1 9 .4 12.2 1.1-3.8 3-8.2 5.9-13.4 8.9a227 227 0 0 1-15.2 8.1c-5 2.4-10 5-15.2 7.7-5.1 2.7-10.3 5.8-15.4 9.3a92 92 0 0 0-13.8 11.4 37.7 37.7 0 0 0-10.3 17.2 26.8 26.8 0 0 0-.7 11.5c7.3 6.9 15.3 13 23.8 18.3 4.1-.2 8.2-1.1 12.5-2.9 4.8-2 9.1-5 13.1-8.8 5-4.9 9.6-10.7 13.9-17.4s7.8-12.9 10.5-18.5 5.8-11.8 9.5-18.5 7.3-12.3 10.9-16.7a66.7 66.7 0 0 1 1.8 16.9q0 10.2-.6 18.6c-.4 5.7-.3 11.9.4 18.7a56 56 0 0 0 4.4 17.7c1.8 4 4.6 7 8.2 9.1s7.8 3.2 12.4 3.3c8.2.1 15.9-2.7 23.3-8.6a38.2 38.2 0 0 0 14.1-20.3 24.8 24.8 0 0 0-1-17.3c-1.8-4.1-4.4-8-7.6-11.7a72.3 72.3 0 0 0-10.3-9.7l-10.9-8.1c-3.6-2.6-7.2-5.4-10.7-8.5a59 59 0 0 1-8.5-9.2c3.5-.6 7.8-.8 12.7-.7 4.1.1 10.5.5 19.1 1.4s15.3 1.4 19.9 1.4c9 .1 17.4-.9 25-3a40.4 40.4 0 0 0 17.8-10.6c2.3-2.3 4.3-4.7 5.9-7.3A133.4 133.4 0 0 0 244 86.2z"
       id="path3" /><path
       d="M44.6 217.1c.6 3.2 1.8 6.2 3.8 9.1 4.1 6 10.3 9.1 18.5 9.2h1.6a137 137 0 0 1-23.8-18.3z"
       id="path4" /></g></svg>
