<?xml version="1.0" encoding="UTF-8" standalone="no"?>
<svg
   xml:space="preserve"
   viewBox="0 0 527.6 52.3"
   version="1.1"
   id="svg2"
   sodipodi:docname="wordmark_white.svg"
   inkscape:version="1.4 (e7c3feb100, 2024-10-09)"
   xmlns:inkscape="http://www.inkscape.org/namespaces/inkscape"
   xmlns:sodipodi="http://sodipodi.sourceforge.net/DTD/sodipodi-0.dtd"
   xmlns="http://www.w3.org/2000/svg"
   xmlns:svg="http://www.w3.org/2000/svg"><sodipodi:namedview
     id="namedview1"
     pagecolor="#ffffff"
     bordercolor="#000000"
     borderopacity="0.25"
     inkscape:showpageshadow="2"
     inkscape:pageopacity="0.0"
     inkscape:pagecheckerboard="0"
     inkscape:deskcolor="#d1d1d1"
     inkscape:zoom="3.3642913"
     inkscape:cx="263.79999"
     inkscape:cy="26.00845"
     inkscape:window-width="1920"
     inkscape:window-height="1006"
     inkscape:window-x="0"
     inkscape:window-y="0"
     inkscape:window-maximized="1"
     inkscape:current-layer="svg2" /><defs
     id="defs2" /><path
     d="M3 1.6a5.7 5.7 0 0 0-2.7 5v7.9c.3 3.4 1 6.4 2.2 8.8 3.1 6.1 8.4 9.1 15.9 9.1h19.5c1.1 0 1.4.3 1.4 1.4s-.3 1.4-1.4 1.4H6.7c-2.1 0-3.9.9-5 2.7A10 10 0 0 0 0 43.7c0 2.1.5 4 1.6 5.6a5.7 5.7 0 0 0 5 2.7h31.3c3.4-.3 6.4-1 8.8-2.2 6.1-3.1 9.1-8.4 9.1-15.9S52.7 21.1 46.7 18a25.3 25.3 0 0 0-8.8-2.2H18.3c-1.1 0-1.4-.3-1.4-1.4V6.7c0-2.1-.9-3.9-2.7-5A9 9 0 0 0 8.6 0C6.5 0 4.6.5 3 1.6m.3 5.1c0-1.1.4-1.9 1.4-2.5A6 6 0 0 1 8.6 3c1.5 0 2.8.4 3.9 1.1 1 .6 1.4 1.4 1.4 2.6v7.8c0 2.8 1.7 4.4 4.4 4.4h19.4c3 .2 5.6.9 7.7 1.9 5 2.5 7.4 6.8 7.4 13.2 0 6.3-2.4 10.6-7.5 13.2-2.1 1-4.7 1.6-7.7 1.9H6.5c-1.1 0-1.9-.4-2.5-1.4-.6-1.2-1-2.5-1-4s.4-2.8 1.1-3.9c.6-1 1.4-1.4 2.6-1.4h31.2c2.8 0 4.4-1.7 4.4-4.4s-1.7-4.4-4.4-4.4H18.3C12 29.5 7.7 27.1 5.1 22c-1-2.1-1.6-4.7-1.9-7.7V6.6zm73.5 9.2h-.2c-3.4.3-6.4 1-8.8 2.2-6.1 3.1-9.1 8.4-9.1 15.9s3.1 12.8 9.1 15.9c2.4 1.2 5.4 1.9 8.8 2.2h16.7c2.1 0 3.9-.9 5-2.7l.2-.5q.6 1.05 1.8 1.8a9.7 9.7 0 0 0 5.6 1.6c2.1 0 4-.5 5.6-1.6a5.7 5.7 0 0 0 2.7-5V33.8c-.3-3.4-1-6.4-2.2-8.8-3.1-6.1-8.4-9.1-15.8-9.1zm19.4 3c6.3 0 10.6 2.4 13.1 7.4 1 2.1 1.6 4.7 1.9 7.7v11.6c0 1.1-.4 1.9-1.4 2.5a7.1 7.1 0 0 1-3.9 1.1c-1.5 0-2.8-.4-3.9-1.1a2.9 2.9 0 0 1-1.4-2.5V33.9c0-2.8-1.6-4.4-4.4-4.4H76.8c-2.8 0-4.4 1.7-4.4 4.4s1.7 4.4 4.4 4.4h16.5c1.1 0 1.9.4 2.5 1.4a7.1 7.1 0 0 1 1.1 3.9c0 1.5-.4 2.8-1.1 3.9-.6.9-1.4 1.4-2.5 1.4H76.9c-3-.2-5.6-.9-7.7-1.9-5-2.5-7.4-6.8-7.4-13.2 0-6.3 2.4-10.6 7.4-13.2 2.1-1 4.6-1.6 7.7-1.9h19.4zm-20.8 15c0-1.1.3-1.4 1.4-1.4h19.4c1.1 0 1.4.3 1.4 1.4v3.3a5.7 5.7 0 0 0-4.3-1.8H76.8c-1.1 0-1.4-.3-1.4-1.4zm83.3-32.3a5.7 5.7 0 0 0-2.7 5v7.8c0 1.1-.3 1.4-1.4 1.4H135c-3.4.3-6.4 1-8.8 2.2-6 3.1-9.1 8.4-9.1 15.9s3.1 12.8 9.1 15.9c2.4 1.2 5.4 1.9 8.8 2.2h31.3c2.1 0 3.9-.9 5-2.7a9.7 9.7 0 0 0 1.6-5.6c0-2.1-.5-4-1.6-5.6a5.7 5.7 0 0 0-5-2.7h-31.1c-1.1 0-1.4-.3-1.4-1.4s.3-1.4 1.4-1.4h19.4c7.4 0 12.8-3.1 15.8-9.1 1.2-2.4 1.9-5.4 2.2-8.8v-8c0-2.1-.9-3.9-2.7-5a9.7 9.7 0 0 0-5.6-1.6c-2.1 0-4 .5-5.6 1.6zm-4.1 17.3c2.8 0 4.4-1.7 4.4-4.4V6.7a3 3 0 0 1 1.4-2.6 7.1 7.1 0 0 1 3.9-1.1c1.5 0 2.8.4 3.9 1.1 1 .6 1.4 1.4 1.4 2.5v7.7c-.2 3-.9 5.6-1.9 7.7-2.5 5-6.8 7.4-13.1 7.4h-19.4c-2.8 0-4.4 1.7-4.4 4.4s1.7 4.4 4.4 4.4h31.1c1.1 0 1.9.4 2.5 1.4a7.1 7.1 0 0 1 1.1 3.9c0 1.5-.4 2.8-1.1 3.9-.6.9-1.4 1.4-2.5 1.4h-31c-3-.2-5.6-.9-7.7-1.9-5-2.5-7.4-6.8-7.4-13.2 0-6.3 2.4-10.6 7.4-13.2 2.1-1 4.6-1.6 7.7-1.9h19.3zM178 1.6a5.7 5.7 0 0 0-2.7 5v7.9c.3 3.4 1 6.4 2.2 8.8 3.1 6.1 8.4 9.1 15.9 9.1h19.5c1.1 0 1.4.3 1.4 1.4s-.3 1.4-1.4 1.4h-31.2c-2.1 0-3.9.9-5 2.7a9.7 9.7 0 0 0-1.6 5.6c0 2.1.5 4 1.6 5.6a5.7 5.7 0 0 0 5 2.7h31.4c3.4-.3 6.4-1 8.8-2.2 6.1-3.1 9.1-8.4 9.1-15.9s-3.1-12.8-9.1-15.9a25.3 25.3 0 0 0-8.8-2.2h-19.7c-1.1 0-1.4-.3-1.4-1.4V6.7c0-2.1-.9-3.9-2.7-5a9.7 9.7 0 0 0-5.6-1.6c-2.1 0-4 .5-5.6 1.6zm.3 5.1c0-1.1.4-1.9 1.4-2.5a7.1 7.1 0 0 1 3.9-1.1c1.5 0 2.8.4 3.9 1.1 1 .6 1.4 1.4 1.4 2.6v7.8c0 2.8 1.7 4.4 4.4 4.4h19.4c3 .2 5.6.9 7.7 1.9 5 2.5 7.4 6.8 7.4 13.2 0 6.3-2.4 10.6-7.5 13.2-2.1 1-4.7 1.6-7.7 1.9h-31.1c-1.1 0-1.9-.4-2.5-1.4a7.1 7.1 0 0 1-1.1-3.9c0-1.5.4-2.8 1.1-3.9.6-1 1.4-1.4 2.6-1.4h31.2c2.8 0 4.4-1.7 4.4-4.4s-1.7-4.4-4.4-4.4h-19.5c-6.3 0-10.6-2.4-13.2-7.5-1-2.1-1.6-4.7-1.9-7.7V6.9zm92.2 10.5a5.7 5.7 0 0 0-2.7 5V34c0 1.1-.3 1.4-1.4 1.4h-14.6c-1.1 0-1.4-.3-1.4-1.4V22.3c0-2.1-.9-3.9-2.7-5a9.7 9.7 0 0 0-5.6-1.6c-2.1 0-4 .5-5.6 1.6a5.7 5.7 0 0 0-2.7 5V34c0 7.5 3.1 12.8 9.1 15.8 2.4 1.2 5.4 1.9 8.8 2.2h14.7c7.4 0 12.8-3.1 15.8-9.1 1.2-2.4 1.9-5.4 2.2-8.8V22.3c0-2.1-.9-3.9-2.7-5a9.7 9.7 0 0 0-5.6-1.6c-2.1 0-4 .5-5.6 1.6zm-4.1 21.2c2.8 0 4.4-1.7 4.4-4.4V22.3c0-1.1.4-1.9 1.4-2.5a7.1 7.1 0 0 1 3.9-1.1c1.5 0 2.8.4 3.9 1.1 1 .6 1.4 1.4 1.4 2.5v11.6c-.2 3-.9 5.6-1.9 7.7-2.5 5-6.8 7.4-13.1 7.4h-14.5c-3-.2-5.6-.9-7.7-1.9-5-2.5-7.4-6.8-7.4-13.1V22.3c0-1.1.4-1.9 1.4-2.5a7.1 7.1 0 0 1 3.9-1.1c1.5 0 2.8.4 3.9 1.1 1 .6 1.4 1.4 1.4 2.5V34c0 2.8 1.6 4.4 4.4 4.4zm38.9-22.5h-.2c-3.4.3-6.4 1-8.8 2.2-6 3.1-9.1 8.4-9.1 15.8v11.7c0 2.1.9 3.9 2.7 5a9.7 9.7 0 0 0 5.6 1.6c2.1 0 4-.5 5.6-1.6a5.7 5.7 0 0 0 2.7-5V33.9c0-1.1.3-1.4 1.4-1.4h14.6c1.1 0 1.4.3 1.4 1.4v11.7c0 2.1.9 3.9 2.7 5a9.7 9.7 0 0 0 5.6 1.6c2.1 0 4-.5 5.6-1.6a5.7 5.7 0 0 0 2.7-5V33.8c-.3-3.4-1-6.4-2.2-8.8-3.1-6.1-8.4-9.1-15.8-9.1h-14.6zm14.6 3c6.3 0 10.6 2.4 13.1 7.4 1 2.1 1.6 4.7 1.9 7.7v11.6c0 1.1-.4 1.9-1.4 2.5a7.1 7.1 0 0 1-3.9 1.1c-1.5 0-2.8-.4-3.9-1.1a2.9 2.9 0 0 1-1.4-2.5V33.9c0-2.8-1.6-4.4-4.4-4.4h-14.6c-2.8 0-4.4 1.7-4.4 4.4v11.7c0 1.1-.4 1.9-1.4 2.5a7.1 7.1 0 0 1-3.9 1.1c-1.5 0-2.8-.4-3.9-1.1a2.9 2.9 0 0 1-1.4-2.5V33.9c0-6.3 2.4-10.6 7.4-13.2 2.1-1 4.7-1.6 7.7-1.9h14.5zm58.3-3c-7.5 0-12.8 3.1-15.8 9.1a25.3 25.3 0 0 0-2.2 8.8v.2c0 1.1-.3 1.4-1.4 1.4h-11.7c-2.1 0-3.9.9-5 2.7a9.7 9.7 0 0 0-1.6 5.6c0 2.1.5 4 1.6 5.6a5.7 5.7 0 0 0 5 2.7h11.7c7.5 0 12.8-3.1 15.8-9.1 1.2-2.5 1.9-5.4 2.2-8.8v-.2c0-1.1.3-1.4 1.4-1.4h11.7c2.1 0 3.9-.9 5-2.7a9.7 9.7 0 0 0 1.6-5.6c0-2.1-.5-4-1.6-5.6a5.7 5.7 0 0 0-5-2.7zm-13.1 10.4c2.5-5 6.8-7.4 13.1-7.4h11.7c1.1 0 1.9.4 2.5 1.4a7.1 7.1 0 0 1 1.1 3.9c0 1.5-.4 2.8-1.1 3.9-.6.9-1.4 1.4-2.5 1.4h-11.7c-2.8 0-4.4 1.7-4.4 4.4v-.1c-.2 3-.9 5.7-1.9 7.8-2.5 5-6.8 7.4-13.1 7.4h-11.7c-1.1 0-1.9-.4-2.5-1.4a7.1 7.1 0 0 1-1.1-3.9c0-1.5.4-2.8 1.1-3.9.6-.9 1.4-1.4 2.5-1.4h11.7c2.8 0 4.4-1.7 4.4-4.4v.1c.2-3 .9-5.7 1.9-7.8m52.1 3.2c-2.8 0-4.4 1.7-4.4 4.4s1.6 4.4 4.4 4.4h9.2v-4.4c0-2.8-1.6-4.4-4.4-4.4zm-1.4 4.4c0-1.1.3-1.4 1.4-1.4h4.8c1.1 0 1.4.3 1.4 1.4v1.4h-6.2c-1.1 0-1.4-.3-1.4-1.4"
     id="path1"
     style="fill:#f9f9f9" /><path
     d="M417.2 15.9h-.2c-3.4.3-6.4 1-8.8 2.2-6 3.1-9.1 8.4-9.1 15.9s3.1 12.8 9.1 15.9c2.4 1.2 5.4 1.9 8.8 2.2h31.3c2.1 0 3.9-.9 5-2.7 1.1-1.6 1.6-3.5 1.6-5.6s-.5-4-1.6-5.6a5.8 5.8 0 0 0-5.1-2.7h-8.3v-1.6c-.3-3.4-1-6.4-2.2-8.8-3.1-6.1-8.4-9.1-15.8-9.1H417zm4.8 3c6.3 0 10.6 2.4 13.1 7.5 1 2.1 1.6 4.7 1.9 7.7v4.3h11.3a3 3 0 0 1 2.6 1.4 6.4 6.4 0 0 1 1.1 3.9c0 1.5-.4 2.8-1.1 3.9-.6.9-1.4 1.4-2.5 1.4h-31c-3-.2-5.6-.9-7.7-1.9-5-2.5-7.4-6.8-7.4-13.2 0-6.3 2.4-10.6 7.4-13.2 2.1-1 4.6-1.6 7.7-1.9h4.8zm53.5-3h-.2c-3.4.3-6.4 1-8.8 2.2-6 3.1-9.1 8.4-9.1 15.8v11.7c0 2.1.9 3.9 2.7 5a9.7 9.7 0 0 0 5.6 1.6c2.1 0 4-.5 5.6-1.6a5.7 5.7 0 0 0 2.7-5V33.9c0-1.1.3-1.4 1.4-1.4H490c1.1 0 1.4.3 1.4 1.4v11.7c0 2.1.9 3.9 2.7 5a9.7 9.7 0 0 0 5.6 1.6c2.1 0 4-.5 5.6-1.6a5.7 5.7 0 0 0 2.7-5V33.8c-.3-3.4-1-6.4-2.2-8.8-3.1-6.1-8.4-9.1-15.8-9.1h-14.6zm14.6 3c6.3 0 10.6 2.4 13.1 7.4 1 2.1 1.6 4.7 1.9 7.7v11.6c0 1.1-.4 1.9-1.4 2.5a7.1 7.1 0 0 1-3.9 1.1c-1.5 0-2.8-.4-3.9-1.1a2.9 2.9 0 0 1-1.4-2.5V33.9c0-2.8-1.6-4.4-4.4-4.4h-14.6c-2.8 0-4.4 1.7-4.4 4.4v11.7c0 1.1-.4 1.9-1.4 2.5a7.1 7.1 0 0 1-3.9 1.1c-1.5 0-2.8-.4-3.9-1.1a2.9 2.9 0 0 1-1.4-2.5V33.9c0-6.3 2.4-10.6 7.4-13.2 2.1-1 4.7-1.6 7.7-1.9h14.5zm23.3 18.9a8 8 0 0 0-2.4 5.9 8 8 0 0 0 2.4 5.9 8 8 0 0 0 5.9 2.4 8 8 0 0 0 5.9-2.4 8 8 0 0 0 2.4-5.9 8 8 0 0 0-2.4-5.9 8 8 0 0 0-5.9-2.4 8 8 0 0 0-5.9 2.4m2.2 9.6c-1-1-1.6-2.3-1.6-3.8a5 5 0 0 1 1.6-3.8c1-1 2.3-1.6 3.8-1.6a5 5 0 0 1 3.8 1.6c1 1 1.6 2.3 1.6 3.8a5 5 0 0 1-1.6 3.8c-1 1-2.3 1.6-3.8 1.6a5 5 0 0 1-3.8-1.6"
     id="path2"
     style="fill:#f9f9f9" /></svg>
